<svg width="18" height="20" viewBox="0 0 18 20" fill="none" xmlns="http://www.w3.org/2000/svg">
<path d="M16.2544 8.99677C16.2544 8.42231 16.1917 7.85213 16.0677 7.29632L17.008 6.75271L14.6968 2.74406L13.7547 3.28868C12.9101 2.50891 11.907 1.92832 10.8152 1.58723V0.5H6.19278V1.58727C5.10098 1.92836 4.09795 2.50895 3.25331 3.28872L2.31121 2.74406L0 6.75271L0.940315 7.29632C0.816258 7.85209 0.753543 8.42227 0.753543 8.99677C0.753543 9.57127 0.816258 10.1414 0.940315 10.6972L0 11.2409L2.31121 15.2495L3.25323 14.7049C3.76289 15.1754 4.33067 15.5725 4.94034 15.8892V12.5978C3.98443 11.6486 3.44086 10.3502 3.44086 8.99681C3.44086 6.20122 5.71217 3.92679 8.50395 3.92679C11.2957 3.92679 13.567 6.20122 13.567 8.99681C13.567 10.3502 13.0235 11.6486 12.0676 12.5979V15.8892C12.6773 15.5725 13.245 15.1754 13.7547 14.7049L14.6968 15.2495L17.008 11.2409L16.0677 10.6972C16.1917 10.1414 16.2544 9.57123 16.2544 8.99677Z" fill="#8E8E92"/>
<path d="M6.42188 17.3086V17.4418C6.42188 18.591 7.35547 19.5258 8.50304 19.5258C9.65058 19.5258 10.5842 18.591 10.5842 17.4418V17.3086H6.42188Z" fill="#8E8E92"/>
<path d="M7.94789 13.4193V10.2439L6.52761 8.82162L7.31481 8.03334L8.50453 9.22469L9.69426 8.03334L10.4815 8.82162L9.06117 10.2438V13.4193H10.9548V12.1087L11.1399 11.9425C11.9752 11.1926 12.4543 10.1189 12.4543 8.99671C12.4543 6.81582 10.6824 5.0415 8.5045 5.0415C6.32658 5.0415 4.55469 6.81582 4.55469 8.99671C4.55469 10.1189 5.03377 11.1925 5.8691 11.9425L6.05416 12.1086V13.4193H7.94789V13.4193Z" fill="#8E8E92"/>
<path d="M6.05469 14.5342H10.9554V16.194H6.05469V14.5342Z" fill="#8E8E92"/>
</svg>
