<svg width="19" height="15" viewBox="0 0 19 15" fill="none" xmlns="http://www.w3.org/2000/svg">
<path d="M2.88892 0.5C2.88842 0.5 2.88784 0.5 2.88734 0.5C2.70869 0.5 2.54066 0.569704 2.41378 0.696382C2.2855 0.82446 2.21484 0.994997 2.21484 1.17655V11.3213C2.21484 11.6933 2.5184 11.9967 2.8916 11.9976C4.4649 12.0014 7.1008 12.3296 8.91921 14.2343V3.61754C8.91921 3.49144 8.88703 3.37297 8.8263 3.27494C7.33383 0.869211 4.46579 0.503692 2.88892 0.5Z" fill="#8E8E92"/>
<path d="M16.673 11.3213V1.17655C16.673 0.994997 16.6024 0.82446 16.4741 0.696382C16.3472 0.569704 16.1791 0.5 16.0006 0.5C16 0.5 15.9995 0.5 15.999 0.5C14.4222 0.503756 11.5541 0.869275 10.0616 3.275C10.0009 3.37304 9.96875 3.4915 9.96875 3.61761V14.2343C11.7872 12.3296 14.4231 12.0014 15.9964 11.9976C16.3695 11.9967 16.673 11.6933 16.673 11.3213Z" fill="#8E8E92"/>
<path d="M18.2131 2.83984H17.7231V11.3216C17.7231 12.2714 16.9499 13.0459 15.9995 13.0483C14.665 13.0515 12.4646 13.3126 10.9062 14.7889C13.6014 14.1284 16.4426 14.5578 18.0618 14.9271C18.264 14.9732 18.4729 14.9256 18.6349 14.7964C18.7963 14.6675 18.8889 14.4748 18.8889 14.2679V3.51626C18.889 3.1433 18.5858 2.83984 18.2131 2.83984Z" fill="#8E8E92"/>
<path d="M1.16589 11.3216V2.83984H0.675798C0.303238 2.83984 0 3.1433 0 3.51626V14.2678C0 14.4746 0.0925994 14.6673 0.254012 14.7962C0.41587 14.9253 0.624601 14.9731 0.827098 14.9269C2.44632 14.5575 5.28758 14.1282 7.98263 14.7887C6.42434 13.3125 4.22396 13.0514 2.88947 13.0482C1.93912 13.0459 1.16589 12.2714 1.16589 11.3216Z" fill="#8E8E92"/>
</svg>
