<svg width="17" height="16" viewBox="0 0 17 16" fill="none" xmlns="http://www.w3.org/2000/svg">
<path d="M15.8336 7.30979L8.60826 0.717056C8.29111 0.427637 7.81287 0.427669 7.49585 0.717025L0.270437 7.30982C0.0163885 7.54163 -0.0675288 7.8988 0.0565858 8.21971C0.180732 8.54063 0.482998 8.74797 0.826688 8.74797H1.98071V15.3534C1.98071 15.6153 2.19277 15.8276 2.4543 15.8276H6.41471C6.67624 15.8276 6.8883 15.6153 6.8883 15.3534V11.3428H9.2159V15.3534C9.2159 15.6153 9.42796 15.8277 9.68949 15.8277H13.6497C13.9112 15.8277 14.1233 15.6153 14.1233 15.3534V8.74797H15.2775C15.6212 8.74797 15.9235 8.5406 16.0476 8.21971C16.1716 7.89877 16.0877 7.54163 15.8336 7.30979Z" fill="#8E8E92"/>
</svg>
