<svg width="20" height="21" viewBox="0 0 20 21" fill="none" xmlns="http://www.w3.org/2000/svg">
<path d="M6.48794 12.2472C7.01877 12.2472 7.53186 12.2129 8.01739 12.149V6.81988C7.5319 6.75601 7.01877 6.72168 6.48794 6.72168C3.45704 6.72168 1 7.83758 1 9.21416V9.75471C1 11.1312 3.45704 12.2472 6.48794 12.2472Z" fill="#8E8E92"/>
<path d="M6.48794 15.0294C7.01877 15.0294 7.53186 14.995 8.01739 14.9312V13.3692C7.53176 13.433 7.01891 13.4678 6.48794 13.4678C3.8423 13.4678 1.63411 12.6175 1.11542 11.4858C1.03988 11.6507 1 11.8214 1 11.9963V12.5369C1 13.9135 3.45704 15.0294 6.48794 15.0294Z" fill="#8E8E92"/>
<path d="M8.01739 16.2738V16.1524C7.53176 16.2162 7.01891 16.251 6.48794 16.251C3.8423 16.251 1.63411 15.4007 1.11542 14.269C1.03988 14.4338 1 14.6045 1 14.7795V15.32C1 16.6967 3.45704 17.8126 6.48794 17.8126C7.09407 17.8126 7.67705 17.7678 8.22222 17.6854C8.08709 17.4086 8.01739 17.1167 8.01739 16.8143V16.2738Z" fill="#8E8E92"/>
<path d="M14.402 2.5C11.3711 2.5 8.91406 3.6159 8.91406 4.99248V5.53303C8.91406 6.90961 11.3711 8.02551 14.402 8.02551C17.4329 8.02551 19.89 6.90961 19.89 5.53303V4.99248C19.89 3.6159 17.4329 2.5 14.402 2.5Z" fill="#8E8E92"/>
<path d="M14.402 9.24663C11.7564 9.24663 9.54817 8.39637 9.02948 7.26465C8.95395 7.42944 8.91406 7.60013 8.91406 7.77514V8.31569C8.91406 9.69227 11.3711 10.8082 14.402 10.8082C17.4329 10.8082 19.89 9.69227 19.89 8.31569V7.77514C19.89 7.60013 19.8501 7.42944 19.7745 7.26465C19.2558 8.39637 17.0477 9.24663 14.402 9.24663Z" fill="#8E8E92"/>
<path d="M14.402 12.0293C11.7564 12.0293 9.54817 11.179 9.02948 10.0474C8.95395 10.2122 8.91406 10.3828 8.91406 10.5579V11.0984C8.91406 12.475 11.3711 13.5909 14.402 13.5909C17.4329 13.5909 19.89 12.475 19.89 11.0984V10.5579C19.89 10.3828 19.8501 10.2122 19.7745 10.0474C19.2558 11.1791 17.0477 12.0293 14.402 12.0293Z" fill="#8E8E92"/>
<path d="M14.402 14.962C11.7564 14.962 9.54817 14.1117 9.02948 12.98C8.95395 13.1448 8.91406 13.3155 8.91406 13.4904V14.031C8.91406 15.4076 11.3711 16.5235 14.402 16.5235C17.4329 16.5235 19.89 15.4076 19.89 14.031V13.4904C19.89 13.3155 19.8501 13.1447 19.7745 12.98C19.2558 14.1116 17.0477 14.962 14.402 14.962Z" fill="#8E8E92"/>
<path d="M14.402 17.7447C11.7564 17.7447 9.54817 16.8944 9.02948 15.7627C8.95395 15.9276 8.91406 16.0983 8.91406 16.2732V16.8137C8.91406 18.1903 11.3711 19.3062 14.402 19.3062C17.4329 19.3062 19.89 18.1903 19.89 16.8137V16.2731C19.89 16.0982 19.8501 15.9274 19.7745 15.7627C19.2558 16.8944 17.0477 17.7447 14.402 17.7447Z" fill="#8E8E92"/>
</svg>
