<svg width="18" height="17" viewBox="0 0 18 17" fill="none" xmlns="http://www.w3.org/2000/svg">
<path d="M17.7778 5.50684C17.7778 4.34518 17.7778 3.53251 17.7778 3.45542C17.7778 2.59268 17.0769 1.89079 16.2153 1.89079H16.007V3.80312C16.007 4.09115 15.7738 4.32467 15.4861 4.32467C15.1985 4.32467 14.9653 4.09115 14.9653 3.80312C14.9653 3.21763 14.9653 1.60456 14.9653 1.02155C14.9653 0.733513 14.7321 0.5 14.4445 0.5C14.1568 0.5 13.9236 0.733513 13.9236 1.02155V1.89079H10.4514V3.80312C10.4514 4.09115 10.2182 4.32467 9.93056 4.32467C9.64292 4.32467 9.40973 4.09115 9.40973 3.80312C9.40973 3.21763 9.40973 1.60456 9.40973 1.02155C9.40973 0.733513 9.17653 0.5 8.88889 0.5C8.60126 0.5 8.36806 0.733513 8.36806 1.02155V1.89079H4.89584V3.80312C4.89584 4.09115 4.66264 4.32467 4.375 4.32467C4.08736 4.32467 3.85417 4.09115 3.85417 3.80312C3.85417 3.21763 3.85417 1.60456 3.85417 1.02155C3.85417 0.733513 3.62097 0.5 3.33334 0.5C3.0457 0.5 2.8125 0.733513 2.8125 1.02155V1.89079H1.5625C0.700938 1.89079 0 2.59268 0 3.45542V5.50684H17.7778Z" fill="#8E8E92"/>
<path d="M0 6.5498V14.9988C0 15.8616 0.700938 16.5635 1.5625 16.5635H16.2153C17.0769 16.5635 17.7778 15.8616 17.7778 14.9988C17.7778 14.7754 17.7778 9.89423 17.7778 6.5498C17.4537 6.5498 0.179306 6.5498 0 6.5498ZM5 13.7819H3.88889C3.60125 13.7819 3.36806 13.5484 3.36806 13.2604C3.36806 12.9723 3.60125 12.7388 3.88889 12.7388H5C5.28764 12.7388 5.52084 12.9723 5.52084 13.2604C5.52084 13.5484 5.28764 13.7819 5 13.7819ZM5 11.5566H3.88889C3.60125 11.5566 3.36806 11.3231 3.36806 11.0351C3.36806 10.7471 3.60125 10.5136 3.88889 10.5136H5C5.28764 10.5136 5.52084 10.7471 5.52084 11.0351C5.52084 11.3231 5.28764 11.5566 5 11.5566ZM5 9.33138H3.88889C3.60125 9.33138 3.36806 9.09787 3.36806 8.80984C3.36806 8.5218 3.60125 8.28829 3.88889 8.28829H5C5.28764 8.28829 5.52084 8.5218 5.52084 8.80984C5.52084 9.09787 5.28764 9.33138 5 9.33138ZM9.44445 13.7819H8.33334C8.0457 13.7819 7.8125 13.5484 7.8125 13.2604C7.8125 12.9723 8.0457 12.7388 8.33334 12.7388H9.44445C9.73209 12.7388 9.96528 12.9723 9.96528 13.2604C9.96528 13.5484 9.73209 13.7819 9.44445 13.7819ZM9.44445 11.5566H8.33334C8.0457 11.5566 7.8125 11.3231 7.8125 11.0351C7.8125 10.7471 8.0457 10.5136 8.33334 10.5136H9.44445C9.73209 10.5136 9.96528 10.7471 9.96528 11.0351C9.96528 11.3231 9.73209 11.5566 9.44445 11.5566ZM9.44445 9.33138H8.33334C8.0457 9.33138 7.8125 9.09787 7.8125 8.80984C7.8125 8.5218 8.0457 8.28829 8.33334 8.28829H9.44445C9.73209 8.28829 9.96528 8.5218 9.96528 8.80984C9.96528 9.09787 9.73209 9.33138 9.44445 9.33138ZM13.8889 13.7819H12.7778C12.4901 13.7819 12.257 13.5484 12.257 13.2604C12.257 12.9723 12.4901 12.7388 12.7778 12.7388H13.8889C14.1765 12.7388 14.4097 12.9723 14.4097 13.2604C14.4097 13.5484 14.1765 13.7819 13.8889 13.7819ZM13.8889 11.5566H12.7778C12.4901 11.5566 12.257 11.3231 12.257 11.0351C12.257 10.7471 12.4901 10.5136 12.7778 10.5136H13.8889C14.1765 10.5136 14.4097 10.7471 14.4097 11.0351C14.4097 11.3231 14.1765 11.5566 13.8889 11.5566ZM13.8889 9.33138H12.7778C12.4901 9.33138 12.257 9.09787 12.257 8.80984C12.257 8.5218 12.4901 8.28829 12.7778 8.28829H13.8889C14.1765 8.28829 14.4097 8.5218 14.4097 8.80984C14.4097 9.09787 14.1765 9.33138 13.8889 9.33138Z" fill="#8E8E92"/>
</svg>
