<svg width="16" height="14" viewBox="0 0 16 14" fill="none" xmlns="http://www.w3.org/2000/svg">
<path d="M13.6905 7.45703H12.4531C12.5793 7.78489 12.6482 8.13872 12.6482 8.5075V12.9477C12.6482 13.1015 12.62 13.2491 12.5687 13.3863H14.6143C15.3785 13.3863 16.0002 12.7961 16.0002 12.0706V9.64998C16.0002 8.4408 14.9641 7.45703 13.6905 7.45703Z" fill="#8E8E92"/>
<path d="M3.35204 8.5075C3.35204 8.13869 3.42095 7.78489 3.54707 7.45703H2.30969C1.03613 7.45703 0 8.4408 0 9.65V12.0706C0 12.7961 0.621658 13.3864 1.38582 13.3864H3.43151C3.38023 13.2491 3.35204 13.1015 3.35204 12.9477V8.5075Z" fill="#8E8E92"/>
<path d="M9.41195 6.31445H6.58313C5.30956 6.31445 4.27344 7.29822 4.27344 8.50743V12.9477C4.27344 13.1899 4.48025 13.3863 4.73538 13.3863H11.2597C11.5148 13.3863 11.7216 13.1899 11.7216 12.9477V8.50743C11.7216 7.29822 10.6855 6.31445 9.41195 6.31445Z" fill="#8E8E92"/>
<path d="M8.00035 0.5C6.46872 0.5 5.22266 1.6831 5.22266 3.13736C5.22266 4.12376 5.79606 4.98526 6.64288 5.43756C7.04454 5.65208 7.5076 5.77468 8.00035 5.77468C8.4931 5.77468 8.95616 5.65208 9.35782 5.43756C10.2047 4.98526 10.778 4.12373 10.778 3.13736C10.778 1.68313 9.53198 0.5 8.00035 0.5Z" fill="#8E8E92"/>
<path d="M3.12422 2.9585C1.97875 2.9585 1.04688 3.84328 1.04688 4.93087C1.04688 6.01845 1.97875 6.90324 3.12422 6.90324C3.41479 6.90324 3.69148 6.84609 3.94282 6.74337C4.37738 6.56573 4.7357 6.25128 4.95742 5.8574C5.11304 5.58096 5.20157 5.26558 5.20157 4.93087C5.20157 3.84331 4.2697 2.9585 3.12422 2.9585Z" fill="#8E8E92"/>
<path d="M12.8781 2.9585C11.7327 2.9585 10.8008 3.84328 10.8008 4.93087C10.8008 5.26561 10.8893 5.58099 11.0449 5.8574C11.2667 6.25131 11.625 6.56576 12.0595 6.74337C12.3109 6.84609 12.5876 6.90324 12.8781 6.90324C14.0236 6.90324 14.9555 6.01845 14.9555 4.93087C14.9555 3.84328 14.0236 2.9585 12.8781 2.9585Z" fill="#8E8E92"/>
</svg>
