<svg width="20" height="21" viewBox="0 0 20 21" fill="none" xmlns="http://www.w3.org/2000/svg">
<path fill-rule="evenodd" clip-rule="evenodd" d="M1.66797 4.66667C1.66797 4.22464 1.84356 3.80072 2.15612 3.48816C2.46868 3.17559 2.89261 3 3.33464 3H16.668C17.11 3 17.5339 3.17559 17.8465 3.48816C18.159 3.80072 18.3346 4.22464 18.3346 4.66667V13.8333C18.3346 14.2754 18.159 14.6993 17.8465 15.0118C17.5339 15.3244 17.11 15.5 16.668 15.5H10.8346V17.1667H13.3346C13.5556 17.1667 13.7676 17.2545 13.9239 17.4107C14.0802 17.567 14.168 17.779 14.168 18C14.168 18.221 14.0802 18.433 13.9239 18.5893C13.7676 18.7455 13.5556 18.8333 13.3346 18.8333H6.66797C6.44696 18.8333 6.23499 18.7455 6.07871 18.5893C5.92243 18.433 5.83464 18.221 5.83464 18C5.83464 17.779 5.92243 17.567 6.07871 17.4107C6.23499 17.2545 6.44696 17.1667 6.66797 17.1667H9.16797V15.5H3.33464C2.89261 15.5 2.46868 15.3244 2.15612 15.0118C1.84356 14.6993 1.66797 14.2754 1.66797 13.8333V4.66667ZM16.668 4.66667V13.8333H3.33464V4.66667H16.668Z" fill="#8E8E92"/>
<rect x="4" y="5.5" width="12" height="1" rx="0.5" fill="#8E8E92"/>
<rect x="4" y="11.5" width="7" height="1" rx="0.5" fill="#8E8E92"/>
<rect x="4" y="9.5" width="8" height="1" rx="0.5" fill="#8E8E92"/>
<rect x="4" y="7.5" width="10" height="1" rx="0.5" fill="#8E8E92"/>
<circle cx="14.5" cy="11" r="1.5" fill="#8E8E92"/>
</svg>
