<svg width="20" height="21" viewBox="0 0 20 21" fill="none" xmlns="http://www.w3.org/2000/svg">
<g clip-path="url(#clip0_4369_588)">
<path d="M11.1719 0.5H8.82812C8.07426 0.5 7.46094 1.11416 7.46094 1.86906V4.21601C7.46094 4.97091 8.07426 5.58507 8.82812 5.58507H11.1719C11.9257 5.58507 12.5391 4.97091 12.5391 4.21601V1.86906C12.5391 1.11416 11.9257 0.5 11.1719 0.5Z" fill="#8E8E92"/>
<path d="M18.6328 7.97119H16.2891C15.5352 7.97119 14.9219 8.58535 14.9219 9.34025V11.6872C14.9219 12.4421 15.5352 13.0563 16.2891 13.0563H18.6328C19.3867 13.0563 20 12.4421 20 11.6872V9.34025C20 8.58535 19.3867 7.97119 18.6328 7.97119Z" fill="#8E8E92"/>
<path d="M3.71094 13.0563C4.4648 13.0563 5.07812 12.4421 5.07812 11.6872V9.34025C5.07812 8.58535 4.4648 7.97119 3.71094 7.97119H1.36719C0.61332 7.97119 0 8.58535 0 9.34025V11.6872C0 12.4421 0.61332 13.0563 1.36719 13.0563H3.71094Z" fill="#8E8E92"/>
<path d="M11.1719 15.4424H8.82812C8.07426 15.4424 7.46094 16.0565 7.46094 16.8114V19.1584C7.46094 19.9133 8.07426 20.5274 8.82812 20.5274H11.1719C11.9257 20.5274 12.5391 19.9133 12.5391 19.1584V16.8114C12.5391 16.0565 11.9257 15.4424 11.1719 15.4424Z" fill="#8E8E92"/>
<path d="M14.3359 3.62904H16.875V4.75507L16.7034 4.5832C16.4746 4.35409 16.1036 4.35409 15.8747 4.5832C15.6459 4.8123 15.6459 5.18382 15.8747 5.41296L17.0466 6.58644C17.161 6.70101 17.311 6.75831 17.4609 6.75831C17.6109 6.75831 17.7609 6.70101 17.8752 6.58644L19.0471 5.41296C19.2759 5.18386 19.2759 4.81234 19.0471 4.5832C18.8183 4.35409 18.4473 4.35409 18.2185 4.5832L18.0469 4.75507V3.0423C18.0469 2.71827 17.7845 2.45557 17.4609 2.45557H14.3359C14.0123 2.45557 13.75 2.71827 13.75 3.0423C13.75 3.36634 14.0123 3.62904 14.3359 3.62904Z" fill="#8E8E92"/>
<path d="M5.66408 17.3983H3.12502V16.2723L3.29666 16.4441C3.41104 16.5587 3.561 16.616 3.71096 16.616C3.86092 16.616 4.01088 16.5587 4.12525 16.4441C4.35408 16.215 4.35408 15.8435 4.12525 15.6143L2.95338 14.4409C2.72459 14.2118 2.35357 14.2118 2.12475 14.4409L0.952871 15.6143C0.724043 15.8434 0.724043 16.215 0.952871 16.4441C1.18166 16.6732 1.55268 16.6732 1.7815 16.4441L1.95314 16.2723V17.985C1.95314 18.3091 2.21549 18.5718 2.53908 18.5718H5.66408C5.98768 18.5718 6.25002 18.3091 6.25002 17.985C6.25002 17.661 5.98768 17.3983 5.66408 17.3983Z" fill="#8E8E92"/>
<path d="M17.4609 14.269C17.1373 14.269 16.875 14.5317 16.875 14.8558V17.3983H15.7505L15.9221 17.2264C16.151 16.9973 16.151 16.6258 15.9221 16.3967C15.6933 16.1676 15.3223 16.1676 15.0935 16.3967L13.9216 17.5702C13.6928 17.7993 13.6928 18.1708 13.9216 18.3999L15.0935 19.5734C15.2079 19.688 15.3578 19.7453 15.5078 19.7453C15.6578 19.7453 15.8077 19.688 15.9221 19.5734C16.1509 19.3443 16.1509 18.9728 15.9221 18.7436L15.7505 18.5718H17.4609C17.7845 18.5718 18.0469 18.3091 18.0469 17.9851V14.8558C18.0469 14.5317 17.7845 14.269 17.4609 14.269Z" fill="#8E8E92"/>
<path d="M4.90648 1.45405C4.67769 1.22495 4.30668 1.22495 4.07785 1.45405C3.84902 1.68315 3.84902 2.05468 4.07785 2.28382L4.24949 2.45565H2.53906C2.21547 2.45565 1.95312 2.71836 1.95312 3.04239V6.17166C1.95312 6.4957 2.21547 6.7584 2.53906 6.7584C2.86266 6.7584 3.125 6.4957 3.125 6.17166V3.62913H4.24949L4.07785 3.80101C3.84902 4.03011 3.84902 4.40163 4.07785 4.63077C4.19226 4.7453 4.34223 4.80261 4.49219 4.80261C4.64215 4.80261 4.79211 4.7453 4.90648 4.63073L6.07836 3.45726C6.30719 3.22815 6.30719 2.85663 6.07836 2.62749L4.90648 1.45405Z" fill="#8E8E92"/>
</g>
<defs>
<clipPath id="clip0_4369_588">
<rect width="20" height="20" fill="white" transform="translate(0 0.5)"/>
</clipPath>
</defs>
</svg>
