<?xml version="1.0" encoding="utf-8"?>
<!-- Generator: Adobe Illustrator 23.0.1, SVG Export Plug-In . SVG Version: 6.00 Build 0)  -->
<svg version="1.1" id="Layer_1" xmlns="http://www.w3.org/2000/svg"
     x="0px" y="0px"
     viewBox="0 0 512 512" style="enable-background:new 0 0 512 512;"
     xml:space="preserve">
<title>01</title>
    <path d="M483.3,153.8c-2.9-8.8-7-16.8-15.6-21.4c-3.6-1.9-7.6-3.1-11.4-4.6h-9c-9.7,2-16.8,8-23.6,14.9
	c-54.1,54.1-108.1,108.2-162.1,162.3c-1.7,2-3.5,3.7-5.6,5.2c-1-1.7-1.6-3.8-3-5.2c-54-53.9-107.8-107.9-161.6-161.9
	c-7-7-14.1-13.2-24-15.2h-9c-5.8,3-12.6,5-17.2,9.3c-13.9,12.9-13,32.5,1.3,46.9c63.5,63.5,127.1,127,190.6,190.5
	c15.2,15.2,33.5,15.2,48.8-0.1c60.8-60.8,121.6-121.6,182.5-182.3c7.8-7.7,15.9-15.1,19.1-26.2L483.3,153.8z"/>
</svg>
