<svg width="20" height="21" viewBox="0 0 20 21" fill="none" xmlns="http://www.w3.org/2000/svg">
<path d="M4.27969 2.64307C4.65857 2.64307 5.02193 2.79358 5.28984 3.06149C5.55775 3.32939 5.70826 3.69276 5.70826 4.07164V16.9288C5.70826 17.3077 5.55775 17.671 5.28984 17.9389C5.02193 18.2068 4.65857 18.3574 4.27969 18.3574H2.85826C2.47938 18.3574 2.11602 18.2068 1.84811 17.9389C1.5802 17.671 1.42969 17.3077 1.42969 16.9288V4.07164C1.42969 3.69276 1.5802 3.32939 1.84811 3.06149C2.11602 2.79358 2.47938 2.64307 2.85826 2.64307H4.27969ZM9.27969 2.64307C9.65857 2.64307 10.0219 2.79358 10.2898 3.06149C10.5577 3.32939 10.7083 3.69276 10.7083 4.07164V16.9288C10.7083 17.3077 10.5577 17.671 10.2898 17.9389C10.0219 18.2068 9.65857 18.3574 9.27969 18.3574H7.85469C7.47581 18.3574 7.11244 18.2068 6.84454 17.9389C6.57663 17.671 6.42612 17.3077 6.42612 16.9288V4.07164C6.42612 3.69276 6.57663 3.32939 6.84454 3.06149C7.11244 2.79358 7.47581 2.64307 7.85469 2.64307H9.27969V2.64307ZM15.7654 5.17378L18.5225 16.2331C18.6139 16.6008 18.5557 16.9897 18.3605 17.3144C18.1654 17.6392 17.8494 17.8733 17.4818 17.9652L16.0797 18.3152C15.8976 18.3605 15.7084 18.3695 15.5229 18.3417C15.3373 18.3139 15.159 18.2498 14.9983 18.1531C14.8375 18.0564 14.6973 17.929 14.5858 17.7781C14.4743 17.6272 14.3935 17.4559 14.3483 17.2738L11.5911 6.2145C11.5457 6.03247 11.5365 5.84328 11.5642 5.65772C11.5918 5.47216 11.6558 5.29387 11.7524 5.13302C11.8489 4.97218 11.9762 4.83193 12.127 4.72029C12.2778 4.60864 12.4491 4.52779 12.6311 4.48235L14.0333 4.13307C14.2153 4.08762 14.4046 4.0785 14.5902 4.10621C14.7758 4.13392 14.9541 4.19793 15.1149 4.29457C15.2758 4.39122 15.416 4.51861 15.5276 4.66947C15.6392 4.82032 15.72 4.99169 15.7654 5.17378V5.17378Z" fill="#8E8E92"/>
</svg>
