<svg width="574" height="574" viewBox="0 0 574 574" fill="none" xmlns="http://www.w3.org/2000/svg">
<path d="M376.89 61.1656C376.89 61.1656 293.602 36.6443 211.371 86.2494C129.14 135.854 87.2493 228.349 51.2136 302.556C15.1779 376.762 35.1416 449.5 97.501 480.013C159.86 510.527 202.681 458.913 290.445 452.186C378.21 445.459 401.721 456.399 474.849 405.026C547.976 353.653 561.878 240.093 504.995 159.354C448.112 78.6152 376.89 61.1656 376.89 61.1656Z" fill="white"/>
<path d="M302.209 269.149H280.5V293.177H302.209V269.149Z" fill="#1C1D25" stroke="#1C1D25" stroke-linecap="round" stroke-linejoin="round"/>
<path d="M429.721 124.156H152.973V271.123H429.721V124.156Z" fill="#1C1D25" stroke="#1C1D25" stroke-linecap="round" stroke-linejoin="round"/>
<path d="M423.106 127.669H159.594V267.599H423.106V127.669Z" fill="white"/>
<path d="M411.638 173.142L345.02 239.749" stroke="#1C1D25" stroke-linecap="round" stroke-linejoin="round"/>
<path d="M402.844 198.363L345.02 256.2" stroke="#1C1D25" stroke-linecap="round" stroke-linejoin="round"/>
<path d="M411.64 189.581L407.668 193.553" stroke="#1C1D25" stroke-linecap="round" stroke-linejoin="round"/>
<path d="M253.087 214.711L186.469 281.329" stroke="#1C1D25" stroke-linecap="round" stroke-linejoin="round"/>
<path d="M244.294 239.944L186.469 297.769" stroke="#1C1D25" stroke-linecap="round" stroke-linejoin="round"/>
<path d="M253.089 231.15L249.117 235.122" stroke="#1C1D25" stroke-linecap="round" stroke-linejoin="round"/>
<path d="M337.001 84.6997L270.383 151.318" stroke="#1C1D25" stroke-linecap="round" stroke-linejoin="round"/>
<path d="M328.208 109.933L270.383 167.757" stroke="#1C1D25" stroke-linecap="round" stroke-linejoin="round"/>
<path d="M336.996 101.139L333.023 105.111" stroke="#1C1D25" stroke-linecap="round" stroke-linejoin="round"/>
<path d="M330.091 204L320.551 210.291V266.704H367.412V209.648L357.218 203.357L330.091 204Z" fill="white" stroke="#1C1D25" stroke-linecap="round" stroke-linejoin="round"/>
<path d="M338.98 215.721L343.537 223.745L337.246 256.727L344.834 265.188L352.87 255.637L346.579 223.309L352.434 215.502L345.053 206.605L338.98 215.721Z" fill="#2F5A53" stroke="#1C1D25" stroke-linecap="round" stroke-linejoin="round"/>
<path d="M332.691 189.902V202.921L344.631 214.848L357.213 202.484V190.775L332.691 189.902Z" fill="#C5C5C5" stroke="#1C1D25" stroke-linecap="round" stroke-linejoin="round"/>
<path d="M332.691 195.539C333.503 196.367 334.374 197.134 335.297 197.835C338.465 200.19 342.308 201.462 346.255 201.462C350.202 201.462 354.045 200.19 357.213 197.835V190.798L332.691 189.926V195.539Z" fill="#1C1D25" stroke="#1C1D25" stroke-linecap="round" stroke-linejoin="round"/>
<path d="M324.015 144.12V166.69C324.015 166.69 318.378 163.246 316.645 169.514C314.911 175.782 319.251 181.224 321.627 181.442C322.876 181.615 324.149 181.465 325.324 181.006C325.324 181.006 328.354 189.903 335.3 195.115C338.874 197.762 343.289 199.022 347.722 198.661C352.156 198.3 356.308 196.342 359.408 193.151C363.713 188.559 366.996 180.351 366.996 180.351C366.996 180.351 373.069 182.957 375.032 177.321C377.776 169.411 374.607 166.69 372.644 165.841C370.681 164.991 367.226 166.059 367.226 166.059C367.226 166.059 368.741 151.307 367.226 145.016C365.71 138.725 351.601 135.258 343.577 135.258C335.552 135.258 325.105 141.09 324.015 144.12Z" fill="#C5C5C5" stroke="#1C1D25" stroke-linecap="round" stroke-linejoin="round"/>
<path d="M367.188 144.992C365.673 138.701 351.564 135.234 343.539 135.234C335.515 135.234 325.103 141.089 324.023 144.12V166.69H327.066C327.066 166.69 325.975 160.835 327.502 157.574C329.029 154.314 330.533 153.453 330.751 151.502C330.969 149.55 329.017 144.774 329.017 144.774H364.376C364.376 144.774 361.988 149.768 363.078 152.156C364.169 154.544 365.466 156.495 365.466 157.574V165.817H367.2C367.36 163.843 368.589 150.813 367.188 144.992Z" fill="#1C1D25" stroke="#1C1D25" stroke-linecap="round" stroke-linejoin="round"/>
<path d="M342.68 167.987C342.68 167.987 340.074 171.431 342.026 174.714C343.977 177.997 348.753 177.974 351.141 175.368C353.529 172.762 351.141 169.295 350.269 167.769" stroke="#1C1D25" stroke-linecap="round" stroke-linejoin="round"/>
<path d="M348.316 182.957C348.316 184.037 347.685 184.909 346.904 184.909C346.124 184.909 345.492 184.037 345.492 182.957C345.492 181.878 346.124 181.006 346.904 181.006C347.685 181.006 348.316 181.878 348.316 182.957Z" fill="#1C1D25" stroke="#1C1D25" stroke-linecap="round" stroke-linejoin="round"/>
<path d="M336.49 166.472C337.27 166.472 337.902 165.454 337.902 164.199C337.902 162.943 337.27 161.926 336.49 161.926C335.71 161.926 335.078 162.943 335.078 164.199C335.078 165.454 335.71 166.472 336.49 166.472Z" fill="#1C1D25"/>
<path d="M357.535 164.165C357.535 165.416 356.904 166.461 356.123 166.461C355.342 166.461 354.711 165.439 354.711 164.165C354.711 162.89 355.342 161.869 356.123 161.869C356.904 161.869 357.535 162.936 357.535 164.165Z" fill="#1C1D25"/>
<path d="M339.972 158.229H333.13C332.648 158.229 332.258 158.62 332.258 159.101V159.526C332.258 160.008 332.648 160.399 333.13 160.399H339.972C340.454 160.399 340.845 160.008 340.845 159.526V159.101C340.845 158.62 340.454 158.229 339.972 158.229Z" fill="#1C1D25" stroke="#1C1D25" stroke-linecap="round" stroke-linejoin="round"/>
<path d="M358.515 158.229H351.673C351.191 158.229 350.801 158.62 350.801 159.101V159.526C350.801 160.008 351.191 160.399 351.673 160.399H358.515C358.997 160.399 359.388 160.008 359.388 159.526V159.101C359.388 158.62 358.997 158.229 358.515 158.229Z" fill="#1C1D25" stroke="#1C1D25" stroke-linecap="round" stroke-linejoin="round"/>
<path d="M344.635 214.849L333.568 223.964L330.09 204L332.696 202.921L344.635 214.849Z" fill="white" stroke="#1C1D25" stroke-linecap="round" stroke-linejoin="round"/>
<path d="M344.625 214.849L357.85 224.836L360.674 205.309L357.207 202.485L344.625 214.849Z" fill="white" stroke="#1C1D25" stroke-linecap="round" stroke-linejoin="round"/>
<path d="M331.399 203.139L344.842 263.019L359.387 203.575L391.703 219.843L401.037 267.358H288.223L302.113 217.673L331.399 203.139Z" fill="#1C1D25" stroke="#1C1D25" stroke-linecap="round" stroke-linejoin="round"/>
<path d="M303.36 172.568H156.52V143.661H310.73L303.36 172.568Z" fill="#2F5A53"/>
<path d="M180.353 154.407V154.981C180.353 156.737 179.825 157.862 178.631 158.425C180.066 158.987 180.628 160.284 180.628 162.087V163.476C180.628 166.116 179.239 167.528 176.553 167.528H172.328V150.48H176.381C179.159 150.48 180.353 151.778 180.353 154.407ZM175.014 152.926V157.437H176.059C177.058 157.437 177.678 157.001 177.678 155.635V154.682C177.678 153.454 177.265 152.926 176.312 152.926H175.014ZM175.014 159.814V165.06H176.553C177.46 165.06 177.942 164.647 177.942 163.384V161.892C177.942 160.307 177.425 159.814 176.208 159.814H175.014Z" fill="white"/>
<path d="M188.336 167.609C188.107 166.933 188.021 166.218 188.084 165.508V162.821C188.084 161.237 187.556 160.652 186.327 160.652H185.409V167.609H182.723V150.48H186.775C189.553 150.48 190.747 151.778 190.747 154.407V155.75C190.747 157.506 190.185 158.654 188.991 159.194C190.334 159.756 190.77 161.054 190.77 162.833V165.462C190.718 166.168 190.82 166.877 191.069 167.54L188.336 167.609ZM185.409 152.972V158.218H186.454C187.452 158.218 188.061 157.77 188.061 156.404V154.728C188.061 153.5 187.648 152.972 186.695 152.972H185.409Z" fill="white"/>
<path d="M195.713 157.678H199.398V160.124H195.713V165.117H200.305V167.609H192.98V150.48H200.305V152.926H195.713V157.678Z" fill="white"/>
<path d="M211.237 167.609H208.482L208.011 164.509H204.728L204.257 167.609H201.789L204.521 150.526H208.459L211.237 167.609ZM205.107 162.19H207.701L206.404 153.557L205.107 162.19Z" fill="white"/>
<path d="M216.439 160.721L215.612 162.282V167.609H212.926V150.48H215.612V157.919L219.125 150.48H221.811L218.126 158.092L221.869 167.563H219.045L216.439 160.721Z" fill="white"/>
<path d="M223.516 150.48H226.156V167.609H223.516V150.48Z" fill="white"/>
<path d="M231.024 155.187V167.609H228.613V150.48H231.977L234.744 160.709V150.48H237.131V167.609H234.376L231.024 155.187Z" fill="white"/>
<path d="M243.572 158.045H247.337V163.464C247.337 166.196 245.971 167.757 243.331 167.757C240.69 167.757 239.324 166.196 239.324 163.464V154.578C239.324 151.846 240.69 150.285 243.331 150.285C245.971 150.285 247.337 151.846 247.337 154.578V156.243H244.789V154.406C244.789 153.189 244.261 152.73 243.4 152.73C242.539 152.73 242.011 153.189 242.011 154.406V163.59C242.011 164.807 242.55 165.243 243.4 165.243C244.249 165.243 244.789 164.807 244.789 163.59V160.49H243.572V158.045Z" fill="white"/>
<path d="M176.791 185.436V205.216H172.934V177.94H178.318L182.726 194.287V177.94H186.549V205.251H182.141L176.791 185.436Z" fill="#1C1D25"/>
<path d="M194.656 189.42H200.546V193.323H194.656V201.359H202.049V205.251H190.34V177.94H202.049V181.843H194.633L194.656 189.42Z" fill="#1C1D25"/>
<path d="M215.032 190.66L213.528 205.216H207.627L204.527 177.94H208.706L211.002 199.476L213.08 177.94H217.213L219.359 199.637L221.564 177.94H225.306L222.264 205.251H216.524L215.032 190.66Z" fill="#1C1D25"/>
<path d="M234.034 177.596C238.213 177.596 240.36 180.087 240.36 184.484V185.345H236.307V184.197C236.307 182.245 235.526 181.499 234.16 181.499C232.794 181.499 232.014 182.245 232.014 184.197C232.014 189.822 240.394 190.867 240.394 198.673C240.394 203.047 238.213 205.561 234 205.561C229.786 205.561 227.594 203.058 227.594 198.673V196.997H231.658V198.949C231.658 200.9 232.519 201.6 233.885 201.6C235.251 201.6 236.112 200.9 236.112 198.949C236.112 193.335 227.72 192.279 227.72 184.472C227.72 180.087 229.867 177.596 234.034 177.596Z" fill="#1C1D25"/>
<path d="M424.107 257.048H156.52V262.145H424.107V257.048Z" fill="#2F5A53"/>
<path d="M423.106 127.669H159.594V267.599H423.106V127.669Z" stroke="#1C1D25" stroke-linecap="round" stroke-linejoin="round"/>
<path d="M326.507 289.503H256.203V294.738H326.507V289.503Z" fill="#1C1D25" stroke="#1C1D25" stroke-linecap="round" stroke-linejoin="round"/>
<path d="M104.447 271.972L99.6367 294.025H112.46L104.447 271.972Z" fill="#1C1D25" stroke="#1C1D25" stroke-linecap="round" stroke-linejoin="round"/>
<path d="M133.687 249.127H97.2148L108.477 294.416H144.949L133.687 249.127Z" fill="#1C1D25" stroke="#1C1D25" stroke-linecap="round" stroke-linejoin="round"/>
<path d="M130.783 254.339H102.703L111.382 289.216H139.462L130.783 254.339Z" fill="white" stroke="#1C1D25" stroke-linecap="round" stroke-linejoin="round"/>
<path d="M475.17 274.372C475.17 274.372 447.755 232.573 451.865 222.976C455.975 213.379 470.371 229.864 470.371 229.864C470.371 229.864 449.133 173.669 463.483 161.328C477.833 148.987 482.678 212.047 482.678 212.047C482.678 212.047 495.73 175.644 506.005 189.42C516.279 203.196 490.197 231.896 490.197 231.896C490.197 231.896 508.025 232.585 503.227 244.226C498.428 255.866 485.41 268.219 485.41 268.219L475.17 274.372Z" fill="#2F5A53"/>
<path d="M469.609 265.291C469.609 265.291 452.573 249.288 452.056 242.056C451.54 234.823 462.893 243.606 467.543 246.705C472.192 249.805 455.672 226.569 456.189 209.533C456.706 192.497 465.993 199.201 469.092 206.445C472.192 213.689 473.742 220.382 475.292 221.931C476.841 223.481 479.413 210.05 486.129 213.666C496.851 219.406 479.413 238.922 483.029 242.572C486.645 246.223 494.9 227.086 499.032 237.418C503.165 247.75 485.601 266.336 485.601 266.336" stroke="#1C1D25" stroke-linecap="round" stroke-linejoin="round"/>
<path d="M480.45 264.258L467.547 225.536" stroke="#1C1D25" stroke-linecap="round" stroke-linejoin="round"/>
<path d="M473.746 244.639L478.901 232.769" stroke="#1C1D25" stroke-linecap="round" stroke-linejoin="round"/>
<path d="M463.414 252.388L477.867 256.004L485.1 250.838" stroke="#1C1D25" stroke-linecap="round" stroke-linejoin="round"/>
<path d="M495.733 262.031H459.41L463.038 294.244H492.105L495.733 262.031Z" fill="#1C1D25" stroke="#1C1D25" stroke-linecap="round" stroke-linejoin="round"/>
<path d="M512.006 294.727H85.5469V467.937H512.006V294.727Z" fill="white" stroke="#1C1D25" stroke-linecap="round" stroke-linejoin="round"/>
<path d="M294.001 318.479H97.5898V379.242H294.001V318.479Z" fill="white" stroke="#1C1D25" stroke-linecap="round" stroke-linejoin="round"/>
<path d="M500.837 318.479H304.426V379.242H500.837V318.479Z" fill="white" stroke="#1C1D25" stroke-linecap="round" stroke-linejoin="round"/>
<path d="M294.001 393.099H97.5898V453.862H294.001V393.099Z" fill="white" stroke="#1C1D25" stroke-linecap="round" stroke-linejoin="round"/>
<path d="M500.837 393.099H304.426V453.862H500.837V393.099Z" fill="white" stroke="#1C1D25" stroke-linecap="round" stroke-linejoin="round"/>
<path d="M512.006 297.998H85.5469V310.362H512.006V297.998Z" fill="#1C1D25" stroke="#1C1D25" stroke-linecap="round" stroke-linejoin="round"/>
<path d="M512.006 294.727H85.5469V307.091H512.006V294.727Z" fill="#8E8E92" stroke="#1C1D25" stroke-linecap="round" stroke-linejoin="round"/>
<path d="M382.108 305.988C382.108 305.988 377.688 313.599 377.688 317.72C377.688 321.842 379.904 325.331 378.32 328.5C376.736 331.668 376.414 334.24 377.998 341.817C379.583 349.394 382.441 358.623 386.884 358.945C391.327 359.266 399.248 359.255 399.248 359.255C400.537 362.716 400.646 366.505 399.558 370.035C397.664 375.43 388.147 381.767 378.894 386.841C369.641 391.915 352.26 397.311 348.46 403.327C344.66 409.342 341.48 419.502 341.48 419.502H480.079C477.536 413.133 474.464 406.989 470.895 401.134C465.51 392.57 455.362 389.401 442.998 380.527C430.634 371.653 427.776 357.694 427.776 348.498C427.776 339.303 426.513 316.79 413.827 306.022C401.142 295.254 385.92 300.914 382.108 305.988Z" fill="white" stroke="#1C1D25" stroke-linecap="round" stroke-linejoin="round"/>
<path d="M470.888 401.112C465.504 392.548 455.355 389.379 442.991 380.505C441.095 379.134 439.342 377.577 437.757 375.856C432.315 380.953 423.223 386.957 410.974 386.188C400.642 385.557 393.754 382.905 389.449 380.391C386.06 382.712 382.554 384.858 378.945 386.819C369.761 391.894 352.311 397.289 348.511 403.305C344.711 409.32 341.531 419.48 341.531 419.48H480.083C477.537 413.111 474.461 406.967 470.888 401.112Z" fill="#2F5A53" stroke="#1C1D25" stroke-linecap="round" stroke-linejoin="round"/>
<path d="M404.944 279.676C404.944 279.676 403.038 273.018 393.211 273.649C383.384 274.281 382.431 285.072 379.894 286.966C377.357 288.86 369.746 287.609 368.793 296.793C367.84 305.977 372.237 309.8 379.573 309.8C386.909 309.8 384.968 311.384 386.874 319.948C388.78 328.512 391.627 329.775 396.058 330.406C400.489 331.038 403.359 330.728 402.085 336.146C400.811 341.565 401.132 346.926 404.622 351.369C408.112 355.812 418.57 359.29 428.73 354.537C438.89 349.785 445.537 340.899 447.098 319.982C448.659 299.066 442.655 291.443 435.997 288.906C429.339 286.369 427.754 285.738 425.86 283.166C423.966 280.595 426.17 275.876 417.927 275.876C413.308 275.746 408.764 277.076 404.944 279.676Z" fill="#8E8E92" stroke="#1C1D25" stroke-linecap="round" stroke-linejoin="round"/>
<path d="M397.723 324.608C399.671 325.367 401.776 325.639 403.853 325.401" stroke="#1C1D25" stroke-linecap="round" stroke-linejoin="round"/>
<path d="M379.182 294.807C379.182 294.807 373.281 302.372 377.701 304.186C382.121 306 388.549 299.743 391.018 309.604C392.166 314.196 392.74 318.123 394.094 320.901" stroke="#1C1D25" stroke-linecap="round" stroke-linejoin="round"/>
<path d="M442.354 317.411C442.354 317.411 439.496 303.141 427.763 300.604C416.031 298.067 413.815 311.062 414.446 324.712C415.078 338.362 411.599 339.292 407.788 350.071C403.977 360.851 416.972 360.851 414.137 367.831C411.301 374.811 404.952 377.015 408.741 384.006C412.529 390.998 420.795 387.175 419.521 396.634C418.246 406.094 428.406 416.931 441.08 412.81C453.754 408.688 461.055 400.756 460.745 386.498C460.435 372.239 449.013 365.248 451.86 357.005C454.707 348.763 459.161 347.178 455.981 338.936C452.801 330.693 442.986 330.085 442.354 317.411Z" fill="#8E8E92" stroke="#1C1D25" stroke-linecap="round" stroke-linejoin="round"/>
<path d="M420.647 324.621C421.024 326.452 421.683 328.214 422.599 329.844C428.029 339.212 412.267 348.097 415.194 353.034C418.121 357.97 431.978 362.895 423.586 371.78C415.194 380.666 420.624 386.085 425.561 389.54C430.497 392.996 420.13 397.932 425.561 403.316C430.991 408.7 439.865 412.684 448.256 403.81" stroke="#1C1D25" stroke-linecap="round" stroke-linejoin="round"/>
<path d="M422.107 305.173C421.482 307.25 420.999 309.367 420.66 311.51" stroke="#1C1D25" stroke-linecap="round" stroke-linejoin="round"/>
<path d="M160.239 373.215C160.239 373.215 126.947 388.139 119.014 391.284C111.082 394.43 100.945 396.06 98.4078 401.8C95.8708 407.54 93.9766 420.512 93.9766 420.512H272.479C272.479 420.512 264.236 399.263 257.257 394.189C250.277 389.114 227.776 383.73 217.628 379.93C207.479 376.131 205.574 374.19 200.19 373.582C194.805 372.974 160.239 373.215 160.239 373.215Z" fill="#2F5A53" stroke="#1C1D25" stroke-linecap="round" stroke-linejoin="round"/>
<path d="M204.341 298.698C204.341 298.698 210.081 307.262 209.415 311.062C208.749 314.862 207.188 317.089 208.141 319.626C209.093 322.163 212.262 323.07 212.905 328.5C213.548 333.93 214.799 346.868 211.952 350.381C209.105 353.894 197.028 357.039 197.028 357.039V369.403L164.689 368.14V347.212C164.689 347.212 160.246 341.472 160.246 326.916C160.246 312.359 179.9 299.019 187.201 295.529C194.502 292.039 204.341 298.698 204.341 298.698Z" fill="white" stroke="#1C1D25" stroke-linecap="round" stroke-linejoin="round"/>
<path d="M202.404 302.51C202.404 302.51 206.216 310.109 203.357 312.968C200.499 315.826 197.617 316.136 197.973 319.626C198.329 323.116 198.604 325.366 196.067 326.916C193.53 328.466 191.315 327.869 190.993 329.775C190.672 331.68 192.256 345.938 186.24 351.644C180.225 357.349 166.575 357.992 161.191 352.287C155.807 346.581 143.432 328.822 138.989 315.826C134.546 302.831 151.043 292.671 154.211 291.408C157.38 290.146 161.822 290.777 162.775 286.013C163.728 281.249 165.944 277.139 174.186 274.923C182.429 272.707 188.778 283.797 192.554 282.534C196.331 281.272 200.797 274.292 208.73 278.413C216.662 282.534 215.067 295.53 211.267 299.077C208.783 301.185 205.66 302.394 202.404 302.51Z" fill="#1C1D25" stroke="#1C1D25" stroke-linecap="round" stroke-linejoin="round"/>
<path d="M216.358 313.6L189.414 326.916" stroke="#1C1D25" stroke-linecap="round" stroke-linejoin="round"/>
<path d="M209.062 312.968C209.062 312.968 218.247 312.646 217.948 314.552C217.65 316.458 217.948 323.736 216.042 325.022C215.612 325.389 215.095 325.64 214.54 325.751C213.986 325.861 213.412 325.828 212.874 325.653" stroke="#1C1D25" stroke-linecap="round" stroke-linejoin="round"/>
<path d="M160.245 364.329L156.434 375.109L208.438 376.383C208.438 376.383 203.685 366.235 199.254 364.65C194.823 363.066 166.272 362.435 160.245 364.329Z" fill="#2F5A53" stroke="#1C1D25" stroke-linecap="round" stroke-linejoin="round"/>
<path d="M198.604 329.774C198.604 329.774 192.256 319.305 187.503 323.747C182.751 328.19 186.551 337.064 190.362 341.185C194.173 345.307 197.02 343.091 198.914 340.554" fill="white"/>
<path d="M198.604 329.774C198.604 329.774 192.256 319.305 187.503 323.747C182.751 328.19 186.551 337.064 190.362 341.185C194.173 345.307 197.02 343.091 198.914 340.554" stroke="#1C1D25" stroke-linecap="round" stroke-linejoin="round"/>
<path d="M34.3125 429.467L34.3125 429.466C34.3096 427.106 34.772 424.768 35.6732 422.586C36.5745 420.405 37.8969 418.422 39.5649 416.752C41.2329 415.082 43.2138 413.757 45.3943 412.853C47.5747 411.949 49.9119 411.484 52.2723 411.484H531.654C536.417 411.484 540.986 413.376 544.354 416.744C547.722 420.112 549.614 424.68 549.614 429.444V505.251H34.3125L34.3125 429.467Z" fill="white" stroke="black"/>
<path d="M52.2723 448.213H531.654C536.55 448.213 541.245 450.158 544.707 453.62C548.169 457.082 550.114 461.777 550.114 466.673V529.033H33.8125V466.685C33.811 464.26 34.2874 461.858 35.2144 459.617C36.1414 457.376 37.5009 455.34 39.2152 453.624C40.9295 451.909 42.965 450.548 45.2054 449.62C47.4458 448.691 49.8472 448.213 52.2723 448.213Z" fill="#8E8E92"/>
</svg>
